<?xml version="1.0" encoding="UTF-8" standalone="no"?>
<!-- Created with Inkscape (http://www.inkscape.org/) -->

<svg
   xmlns:dc="http://purl.org/dc/elements/1.1/"
   xmlns:cc="http://creativecommons.org/ns#"
   xmlns:rdf="http://www.w3.org/1999/02/22-rdf-syntax-ns#"
   xmlns:svg="http://www.w3.org/2000/svg"
   xmlns="http://www.w3.org/2000/svg"
   xmlns:sodipodi="http://sodipodi.sourceforge.net/DTD/sodipodi-0.dtd"
   xmlns:inkscape="http://www.inkscape.org/namespaces/inkscape"
   id="svg2"
   version="1.1"
   inkscape:version="0.91 r"
   width="640"
   height="640"
   viewBox="0 0 640 640"
   sodipodi:docname="github.svg"
   inkscape:export-filename="/home/splushys/Documents/portfolio/img/github.png"
   inkscape:export-xdpi="38"
   inkscape:export-ydpi="38">
  <metadata
     id="metadata8">
    <rdf:RDF>
      <cc:Work
         rdf:about="">
        <dc:format>image/svg+xml</dc:format>
        <dc:type
           rdf:resource="http://purl.org/dc/dcmitype/StillImage" />
        <dc:title></dc:title>
      </cc:Work>
    </rdf:RDF>
  </metadata>
  <defs
     id="defs6" />
  <sodipodi:namedview
     pagecolor="#ffffff"
     bordercolor="#666666"
     borderopacity="1"
     objecttolerance="10"
     gridtolerance="10"
     guidetolerance="10"
     inkscape:pageopacity="0"
     inkscape:pageshadow="2"
     inkscape:window-width="1855"
     inkscape:window-height="1056"
     id="namedview4"
     showgrid="false"
     inkscape:zoom="0.36875"
     inkscape:cx="320"
     inkscape:cy="103.05085"
     inkscape:window-x="65"
     inkscape:window-y="24"
     inkscape:window-maximized="1"
     inkscape:current-layer="svg2" />
  <path
     style="fill:#3cc47c;fill-opacity:1;stroke:#000000;stroke-width:2.71186447;stroke-opacity:0"
     d="M 285.74634,640.66302 C 172.77486,627.22676 74.685606,555.08422 28.799286,451.68398 5.6038159,399.41529 -3.8720541,332.39267 4.1636159,277.43641 24.431986,138.8202 130.3763,28.604567 266.0339,5.008387 c 30.99249,-5.390811 79.43691,-5.431631 112.34547,-0.09466 97.33708,15.785707 186.09185,81.602556 232.08314,172.103213 19.71331,38.79144 33.69899,98.23515 33.8159,143.72882 0.20691,80.54107 -31.84749,161.17036 -88.32616,222.17404 -35.3456,38.1775 -95.90302,74.37077 -147.56925,88.19756 -38.28195,10.24491 -85.71482,13.93695 -122.63666,9.54566 z m -35.21206,-85.64575 0.77155,-26.81389 -20.57984,0.89736 c -37.28372,1.62574 -59.55511,-10.99441 -74.31927,-42.11319 -6.14091,-12.94335 -13.6562,-23.02718 -25.19538,-33.80651 -18.61945,-17.39338 -19.57342,-23.96071 -3.48053,-23.96071 18.9328,0 30.02969,8.01172 53.3466,38.51512 9.84354,12.8774 22.66254,18.43404 42.52687,18.43404 18.60643,0 30.22623,-4.16071 30.22623,-10.82316 0,-2.49085 2.89314,-10.2435 6.4292,-17.22813 l 6.4292,-12.69928 -5.75123,-1.27257 c -3.16318,-0.69993 -14.25575,-3.16867 -24.65015,-5.48613 -37.38951,-8.33605 -65.29955,-29.87661 -80.33115,-61.99842 -9.64555,-20.61204 -13.31231,-39.34132 -13.31231,-67.99737 0,-26.75661 5.08262,-45.20982 17.55856,-63.749 9.13127,-13.569 9.27467,-14.20904 6.52103,-29.10483 -2.86281,-15.48638 -0.62605,-37.21385 5.45934,-53.03094 2.26153,-5.87817 4.62082,-7.45763 11.13967,-7.45763 11.32852,0 35.80048,8.93476 54.01606,19.72136 l 15.13585,8.96291 14.91526,-3.81088 c 21.37014,-5.46012 88.75935,-5.45086 110.01719,0.0152 14.59403,3.75253 17.05096,3.77451 21.69491,0.19406 10.82344,-8.34473 45.3168,-22.71599 58.17807,-24.23922 12.75338,-1.51045 13.50551,-1.22989 16.74261,6.2452 1.99442,4.60551 3.50178,20.66729 3.66254,39.02624 0.25329,28.92989 0.79349,31.9877 7.42582,42.0339 10.5024,15.90831 15.74635,32.66603 17.39256,55.58012 1.82753,25.43794 -4.4788,60.57985 -14.57887,81.2404 -14.29559,29.24288 -46.61532,52.30154 -83.58568,59.63455 -28.01291,5.55634 -26.5661,4.28402 -19.631,17.26349 5.54736,10.38221 6.18229,16.06834 7.42482,66.49217 1.74503,70.81557 1.44805,70.48741 45.58337,50.37229 75.46167,-34.39249 132.46869,-102.55718 154.17343,-184.34902 6.17895,-23.28469 7.15473,-32.42492 7.21708,-67.60304 0.0797,-45.05274 -3.40301,-65.68036 -17.05277,-100.99665 C 537.28163,105.26468 416.14398,30.178371 296.47458,44.090681 c -67.11915,7.80301 -123.34349,34.38658 -168.96029,79.886509 -35.381404,35.29077 -58.595244,74.92854 -73.150044,124.90416 -5.79017,19.88126 -7.29246,31.44648 -8.10206,62.37288 -1.15855,44.25641 1.1158,60.63032 13.56051,97.62712 24.32979,72.3299 71.490244,126.79745 139.770534,161.42677 22.40187,11.36141 37.84518,16.02172 44.74576,13.50283 4.84749,-1.76946 5.5057,-4.82864 6.19529,-28.79368 z"
     id="path4138"
     inkscape:connector-curvature="0" />
</svg>
